<?xml version="1.0" encoding="utf-8"?>
<!-- Generator: Adobe Illustrator 17.0.0, SVG Export Plug-In . SVG Version: 6.00 Build 0)  -->
<!DOCTYPE svg PUBLIC "-//W3C//DTD SVG 1.1//EN" "http://www.w3.org/Graphics/SVG/1.1/DTD/svg11.dtd">
<svg version="1.1" id="Layer_1" xmlns="http://www.w3.org/2000/svg" xmlns:xlink="http://www.w3.org/1999/xlink" x="0px" y="0px"
	 width="300px" height="300px" viewBox="0 0 300 300" enable-background="new 0 0 300 300" xml:space="preserve">
<path fill="#F15C25" d="M193.134,68.29c-1.959,0.003-3.609,0.672-4.947,2.01c-1.341,1.341-2.009,2.991-2.009,4.947
	c0,1.962,0.672,3.609,2.01,4.947l4.947,4.947l-4.947,4.947c-1.341,1.341-2.01,2.99-2.01,4.947c0,1.962,0.672,3.609,2.01,4.947
	c1.341,1.341,2.988,2.012,4.947,2.009c1.959,0.003,3.606-0.669,4.947-2.009l4.947-4.947l4.947,4.947
	c1.341,1.341,2.988,2.012,4.947,2.01c1.959,0.002,3.606-0.669,4.947-2.01c1.338-1.338,2.01-2.986,2.01-4.947
	c0-1.957-0.669-3.607-2.01-4.947l-4.947-4.947l4.947-4.947c1.338-1.338,2.01-2.986,2.009-4.947c0-1.957-0.669-3.606-2.009-4.947
	c-1.338-1.338-2.988-2.007-4.947-2.01c-1.959,0.002-3.608,0.672-4.947,2.01l-4.947,4.947l-4.947-4.947
	C196.743,68.961,195.093,68.292,193.134,68.29z"/>
<g>
	<path fill="#E9E9E9" d="M203.142,36.045c6.703,0,13.043,1.277,19.021,3.826c5.975,2.552,11.185,6.05,15.632,10.495
		c4.444,4.448,7.942,9.657,10.494,15.632c2.548,5.979,3.826,12.318,3.826,19.021c0,5.978-1.059,11.697-3.17,17.163
		c-2.114,5.466-4.994,10.313-8.636,14.539l-9.183,67.119c-0.294,1.749-1.093,3.208-2.405,4.373
		c-1.312,1.168-2.842,1.749-4.591,1.749H84.207c-1.749,0-3.279-0.581-4.591-1.749c-1.312-1.165-2.115-2.549-2.405-4.154
		L57.097,50.037H35.234c-1.896,0-3.536-0.69-4.919-2.077c-1.387-1.383-2.077-3.023-2.077-4.919c0-1.893,0.69-3.532,2.077-4.919
		c1.383-1.383,3.023-2.077,4.919-2.077h27.985c1.749,0,3.279,0.584,4.591,1.749c1.312,1.168,2.111,2.552,2.405,4.154l4.373,29.078
		h81.549c3.061-10.057,8.889-18.399,17.49-25.033C182.226,39.362,192.064,36.045,203.142,36.045z M117.986,251.724
		c-5.466,5.465-12.063,8.198-19.786,8.198c-7.728,0-14.32-2.733-19.786-8.198c-5.466-5.466-8.199-12.059-8.199-19.786
		c0-7.724,2.733-14.32,8.199-19.786s12.059-8.199,19.786-8.199c7.724,0,14.32,2.733,19.786,8.199
		c5.465,5.466,8.198,12.062,8.198,19.786C126.184,239.665,123.451,246.258,117.986,251.724z M224.568,128.963
		c-3.208,1.605-6.634,2.842-10.275,3.717c-3.645,0.875-7.362,1.312-11.15,1.312c-6.706,0-13.046-1.274-19.021-3.826
		c-5.979-2.548-11.188-6.046-15.632-10.494c-4.448-4.444-7.946-9.654-10.494-15.632c-2.552-5.975-3.826-12.315-3.826-19.021H76.555
		l13.774,90.95h127.68L224.568,128.963z M88.361,241.777c2.767,2.771,6.046,4.154,9.838,4.154c3.789,0,7.068-1.383,9.838-4.154
		c2.767-2.767,4.154-6.047,4.154-9.838c0-3.789-1.387-7.068-4.154-9.838c-2.771-2.767-6.05-4.154-9.838-4.154
		c-3.792,0-7.071,1.387-9.838,4.154c-2.771,2.771-4.154,6.05-4.154,9.838C84.207,235.73,85.591,239.009,88.361,241.777z
		 M227.848,109.723c6.849-6.849,10.275-15.085,10.275-24.705s-3.426-17.853-10.275-24.705c-6.853-6.85-15.085-10.276-24.706-10.276
		c-9.62,0-17.856,3.426-24.705,10.276c-6.853,6.853-10.276,15.085-10.276,24.705s3.423,17.856,10.276,24.705
		c6.849,6.853,15.085,10.276,24.705,10.276C212.762,119.999,220.995,116.576,227.848,109.723z M236.921,251.724
		c-5.466,5.465-12.063,8.198-19.786,8.198c-7.728,0-14.32-2.733-19.786-8.198c-5.466-5.466-8.199-12.059-8.199-19.786
		c0-7.724,2.733-14.32,8.199-19.786s12.059-8.199,19.786-8.199c7.724,0,14.32,2.733,19.786,8.199
		c5.465,5.466,8.198,12.062,8.198,19.786C245.119,239.665,242.386,246.258,236.921,251.724z M207.296,241.777
		c2.767,2.771,6.046,4.154,9.838,4.154c3.788,0,7.068-1.383,9.838-4.154c2.767-2.767,4.154-6.047,4.154-9.838
		c0-3.789-1.387-7.068-4.154-9.838c-2.771-2.767-6.05-4.154-9.838-4.154c-3.792,0-7.071,1.387-9.838,4.154
		c-2.771,2.771-4.154,6.05-4.154,9.838C203.142,235.73,204.526,239.009,207.296,241.777z"/>
</g>
</svg>
